<svg width="33" height="32" viewBox="0 0 33 32" fill="none" xmlns="http://www.w3.org/2000/svg">
<path d="M17.8528 0.28978C18.1601 0.28978 18.3836 0.331177 18.5233 0.413972C18.663 0.689953 18.7468 0.938336 18.7747 1.15912C18.8306 1.35231 18.8586 1.58689 18.8586 1.86287C18.8865 2.27684 18.8865 2.58042 18.8586 2.77361C18.8586 2.9392 18.8446 3.11859 18.8166 3.31177C18.7887 3.75334 18.7747 4.18111 18.7747 4.59508C18.7747 4.98146 18.7747 5.39543 18.7747 5.837C18.7747 6.80293 18.7887 7.78266 18.8166 8.7762C18.8446 9.76973 18.8586 10.7495 18.8586 11.7154C18.8586 12.1018 18.8446 12.4881 18.8166 12.8745C18.8166 13.2333 18.8166 13.6059 18.8166 13.9922C18.8166 14.075 18.8166 14.1716 18.8166 14.282C18.8446 14.3648 18.8586 14.4476 18.8586 14.5304C18.8586 14.7788 18.8446 15.0272 18.8166 15.2756C18.8166 15.4963 18.8166 15.7171 18.8166 15.9379C18.8166 16.0483 18.8166 16.1449 18.8166 16.2277C18.8166 16.3105 18.8306 16.4209 18.8586 16.5589C18.8027 16.7796 18.7747 16.9314 18.7747 17.0142C18.7747 17.4558 18.7887 17.9112 18.8166 18.3803C18.8446 18.8219 18.8586 19.2635 18.8586 19.705C18.8586 20.119 18.8586 20.5192 18.8586 20.9056C18.8865 21.2919 18.9005 21.6921 18.9005 22.1061C18.9005 22.3269 18.8865 22.5614 18.8586 22.8098C18.8586 23.0582 18.8586 23.3066 18.8586 23.555C18.8586 24.1345 18.8725 24.7279 18.9005 25.3351C18.9284 25.9146 18.9563 26.4942 18.9843 27.0737C18.9843 27.4601 18.9843 27.8465 18.9843 28.2329C18.9843 28.5916 19.0122 28.9642 19.0681 29.3506C19.0681 29.7922 19.0402 30.1233 18.9843 30.3441C18.9563 30.5373 18.9144 30.7305 18.8586 30.9237C18.635 30.9789 18.4814 31.0065 18.3976 31.0065C18.3417 30.9789 18.2718 30.9651 18.188 30.9651C17.7969 31.0755 17.5454 31.1859 17.4337 31.2962C17.3219 31.379 17.1962 31.4756 17.0565 31.586C16.9448 31.586 16.8051 31.586 16.6374 31.586C16.4977 31.6136 16.386 31.6688 16.3022 31.7516C16.1625 31.6964 16.0507 31.6826 15.9669 31.7102C15.8831 31.7378 15.7993 31.7516 15.7155 31.7516C15.3243 31.7792 15.0589 31.8206 14.9192 31.8758C14.7795 31.9586 14.5839 32 14.3325 32C14.109 31.6412 13.9414 31.3652 13.8296 31.1721C13.7179 30.9513 13.5363 30.8547 13.2848 30.8823C12.9216 30.3303 12.6562 29.7508 12.4886 29.1436C12.3489 28.5364 12.0974 27.9845 11.7342 27.4877C11.7063 27.2669 11.6644 27.1289 11.6085 27.0737C11.5526 27.0185 11.4967 26.9082 11.4409 26.7426C11.3291 26.5218 11.2313 26.2872 11.1475 26.0388C11.0637 25.7904 10.9519 25.5558 10.8122 25.3351C10.5887 24.8659 10.3652 24.4105 10.1417 23.969C9.9182 23.4998 9.70866 23.0168 9.51309 22.5201C9.42928 22.2993 9.35943 22.0785 9.30355 21.8577C9.24768 21.6093 9.17783 21.3747 9.09401 21.1539C9.03814 21.0436 8.96829 20.9332 8.88447 20.8228C8.8286 20.7124 8.77272 20.6158 8.71684 20.533C8.54921 20.2294 8.38158 19.9258 8.21395 19.6223C8.07425 19.3187 7.90662 19.0151 7.71105 18.7115C7.65518 18.5735 7.57136 18.4493 7.45961 18.3389C7.37579 18.2009 7.278 18.063 7.16625 17.925C7.08243 17.7318 6.99862 17.5386 6.9148 17.3454C6.85893 17.1522 6.78908 16.959 6.70526 16.7658C6.64939 16.6003 6.56557 16.4347 6.45382 16.2691C6.34206 16.0759 6.25825 15.8965 6.20237 15.7309C6.14649 15.5929 6.10458 15.4549 6.07664 15.3169C6.04871 15.179 5.96489 15.0548 5.8252 14.9444C5.62963 15.2756 5.53184 15.4963 5.53184 15.6067C5.5039 15.9379 5.47596 16.2139 5.44803 16.4347C5.44803 16.6279 5.44803 16.8072 5.44803 16.9728C5.44803 17.166 5.462 17.3592 5.48993 17.5524C5.54581 17.718 5.57375 17.8836 5.57375 18.0492C5.62963 18.7115 5.67154 19.3877 5.69947 20.0776C5.72741 20.74 5.74138 21.4023 5.74138 22.0647C5.71344 22.589 5.69947 22.9892 5.69947 23.2652C5.72741 23.5412 5.75535 23.8172 5.78329 24.0931C5.81123 24.3691 5.81123 24.6589 5.78329 24.9625C5.78329 25.2385 5.79726 25.5144 5.8252 25.7904C5.8252 26.4252 5.8252 27.0461 5.8252 27.6533C5.85314 28.2329 5.86711 28.84 5.86711 29.4748V30.4683C5.86711 30.7719 5.8252 31.0479 5.74138 31.2962C5.3223 31.2962 5.04292 31.2824 4.90322 31.2549C4.79147 31.2273 4.66575 31.1859 4.52605 31.1307C4.35842 31.1583 4.21873 31.2273 4.10697 31.3376C4.02316 31.4204 3.9114 31.5032 3.77171 31.586C3.46439 31.5584 3.29675 31.5584 3.26882 31.586C3.24088 31.6412 3.185 31.6964 3.10118 31.7516C3.01737 31.7792 2.93355 31.7792 2.84974 31.7516C2.79386 31.724 2.72401 31.7102 2.6402 31.7102C2.41669 31.655 2.23509 31.6274 2.09539 31.6274C1.92776 31.6826 1.76013 31.7378 1.5925 31.793C1.45281 31.8482 1.29914 31.8896 1.13151 31.9172C0.963882 31.6136 0.866097 31.2549 0.838158 30.8409C0.810219 30.4269 0.698465 30.0681 0.502895 29.7646C0.558772 29.6542 0.586711 29.5852 0.586711 29.5576C0.614649 29.53 0.628618 29.4472 0.628618 29.3092C0.628618 28.6744 0.614649 28.0397 0.586711 27.4049C0.558772 26.7702 0.544803 26.1354 0.544803 25.5006C0.544803 24.9763 0.502895 24.4657 0.419079 23.969C0.363202 23.4722 0.335263 22.9616 0.335263 22.4373C0.335263 22.2717 0.349232 22.1061 0.377171 21.9405C0.40511 21.7749 0.419079 21.5955 0.419079 21.4023C0.419079 21.3195 0.40511 21.2367 0.377171 21.1539C0.377171 21.0712 0.377171 21.0022 0.377171 20.947C0.321294 20.4502 0.279386 19.9396 0.251447 19.4153C0.251447 18.8909 0.251447 18.3665 0.251447 17.8422C0.223509 17.5386 0.19557 17.2212 0.167632 16.89C0.167632 16.5589 0.167632 16.2139 0.167632 15.8551C0.167632 15.7171 0.181601 15.5653 0.209539 15.3997C0.237478 15.2342 0.251447 15.0686 0.251447 14.903V13.1643C0.19557 12.8331 0.167632 12.6123 0.167632 12.5019C0.19557 12.3915 0.209539 12.2812 0.209539 12.1708C0.209539 11.9224 0.181601 11.6878 0.125724 11.467C0.0977851 11.2186 0.0838158 10.9564 0.0838158 10.6805C0.0838158 10.4873 0.0977851 10.3079 0.125724 10.1423C0.181601 9.94912 0.209539 9.75593 0.209539 9.56274C0.209539 9.14877 0.181601 8.7486 0.125724 8.36222C0.0977851 7.97585 0.0838158 7.57568 0.0838158 7.16171V3.64295C0.0838158 3.44976 0.0698465 3.25658 0.0419079 3.06339C0.0139693 2.8702 0 2.66322 0 2.44243C0.167632 2.05606 0.321294 1.86287 0.460987 1.86287C0.60068 1.83527 0.726404 1.78008 0.838158 1.69728C1.14548 1.75248 1.4109 1.72488 1.63441 1.61449C1.99761 1.64209 2.22112 1.60069 2.30493 1.4903C2.36081 1.54549 2.43066 1.57309 2.51447 1.57309C2.62623 1.54549 2.72401 1.54549 2.80783 1.57309C2.89164 1.5179 2.96149 1.4627 3.01737 1.4075C3.07325 1.35231 3.15706 1.29711 3.26882 1.24191C3.57614 1.07633 3.75774 0.979733 3.81362 0.952135C3.8695 0.896938 3.93934 0.841742 4.02316 0.786546C4.16285 0.786546 4.24667 0.827943 4.27461 0.910737C4.33048 0.993532 4.42827 1.03493 4.56796 1.03493C4.62384 1.14532 4.69368 1.25571 4.7775 1.36611C4.86132 1.4765 4.9591 1.55929 5.07086 1.61449C5.29436 2.08366 5.55978 2.48383 5.86711 2.81501C6.11855 3.53256 6.39794 4.22251 6.70526 4.88486C7.04053 5.54722 7.38976 6.20957 7.75296 6.87193C7.75296 6.95472 7.76693 7.06511 7.79487 7.20311C7.82281 7.3135 7.85075 7.39629 7.87868 7.45149C8.01838 7.75507 8.21395 8.15524 8.4654 8.65201C8.74478 9.12117 8.98226 9.50755 9.17783 9.81113C9.23371 9.92152 9.30355 10.0181 9.38737 10.1009C9.47118 10.1837 9.54103 10.2803 9.59691 10.3907C9.68072 10.5287 9.75057 10.6805 9.80645 10.8461C9.86232 11.0116 9.93217 11.1634 10.016 11.3014C10.1557 11.6326 10.3093 11.9638 10.477 12.295C10.6725 12.5985 10.8681 12.9159 11.0637 13.2471C11.1196 13.4127 11.1754 13.5783 11.2313 13.7439C11.3151 13.9094 11.3989 14.075 11.4828 14.2406C11.7063 14.7374 11.9018 15.1238 12.0695 15.3997C12.265 15.6481 12.4047 15.9241 12.4886 16.2277C12.6841 16.4485 12.8378 16.6969 12.9495 16.9728C13.0613 17.2212 13.2289 17.4282 13.4524 17.5938C13.4804 17.4558 13.5083 17.0556 13.5363 16.3933C13.5642 15.7033 13.5782 14.9582 13.5782 14.1578C13.5782 13.3575 13.5782 12.5985 13.5782 11.881C13.5782 11.1634 13.5782 10.6805 13.5782 10.4321C13.5782 9.68693 13.5642 8.95558 13.5363 8.23803C13.5083 7.49289 13.4943 6.76154 13.4943 6.04398C13.4943 5.46442 13.4943 4.88486 13.4943 4.3053C13.5223 3.69815 13.5502 3.10479 13.5782 2.52523C13.6061 2.22165 13.6061 1.94567 13.5782 1.69728C13.5782 1.4213 13.5921 1.14532 13.6201 0.86934C13.648 0.73135 13.7039 0.593359 13.7877 0.455369C13.8715 0.317378 13.9414 0.179388 13.9972 0.0413972C14.3604 -0.013799 14.6398 0.0551962 14.8354 0.248383C15.003 0.165589 15.1986 0.124191 15.4221 0.124191C15.6736 0.124191 15.8831 0.110392 16.0507 0.0827943C16.2742 0.0551962 16.4 0.0413972 16.4279 0.0413972C16.4558 0.0137991 16.4977 0 16.5536 0C16.6654 0.0551962 16.7632 0.0965934 16.847 0.124191C16.9587 0.15179 17.0845 0.193187 17.2241 0.248383C17.4756 0.165589 17.6851 0.179388 17.8528 0.28978Z" fill="#4B522A"/>
<path d="M31.7847 0.28978C32.092 0.28978 32.3155 0.331177 32.4552 0.413972C32.5949 0.689953 32.6787 0.938336 32.7066 1.15912C32.7625 1.35231 32.7905 1.58689 32.7905 1.86287C32.8184 2.27684 32.8184 2.58042 32.7905 2.77361C32.7905 2.9392 32.7765 3.11859 32.7486 3.31177C32.7206 3.75334 32.7066 4.18111 32.7066 4.59508C32.7066 4.98146 32.7066 5.39543 32.7066 5.837C32.7066 6.80293 32.7206 7.78266 32.7486 8.7762C32.7765 9.76973 32.7905 10.7495 32.7905 11.7154C32.7905 12.1018 32.7765 12.4881 32.7486 12.8745C32.7486 13.2333 32.7486 13.6059 32.7486 13.9922C32.7486 14.075 32.7486 14.1716 32.7486 14.282C32.7765 14.3648 32.7905 14.4476 32.7905 14.5304C32.7905 14.7788 32.7765 15.0272 32.7486 15.2756C32.7486 15.4963 32.7486 15.7171 32.7486 15.9379C32.7486 16.0483 32.7486 16.1449 32.7486 16.2277C32.7486 16.3105 32.7625 16.4209 32.7905 16.5589C32.7346 16.7796 32.7066 16.9314 32.7066 17.0142C32.7066 17.4558 32.7206 17.9112 32.7486 18.3803C32.7765 18.8219 32.7905 19.2635 32.7905 19.705C32.7905 20.119 32.7905 20.5192 32.7905 20.9056C32.8184 21.2919 32.8324 21.6921 32.8324 22.1061C32.8324 22.3269 32.8184 22.5614 32.7905 22.8098C32.7905 23.0582 32.7905 23.3066 32.7905 23.555C32.7905 24.1345 32.8044 24.7279 32.8324 25.3351C32.8603 25.9146 32.8882 26.4942 32.9162 27.0737C32.9162 27.4601 32.9162 27.8465 32.9162 28.2329C32.9162 28.5916 32.9441 28.9642 33 29.3506C33 29.7922 32.9721 30.1233 32.9162 30.3441C32.8882 30.5373 32.8463 30.7305 32.7905 30.9237C32.5669 30.9789 32.4133 31.0065 32.3295 31.0065C32.2736 30.9789 32.2037 30.9651 32.1199 30.9651C31.7288 31.0755 31.4773 31.1859 31.3656 31.2962C31.2538 31.379 31.1281 31.4756 30.9884 31.586C30.8767 31.586 30.737 31.586 30.5693 31.586C30.4296 31.6136 30.3179 31.6688 30.2341 31.7516C30.0944 31.6964 29.9826 31.6826 29.8988 31.7102C29.815 31.7378 29.7312 31.7516 29.6474 31.7516C29.2562 31.7792 28.9908 31.8206 28.8511 31.8758C28.7114 31.9586 28.5159 32 28.2644 32C28.0409 31.6412 27.8733 31.3652 27.7615 31.1721C27.6498 30.9513 27.4682 30.8547 27.2167 30.8823C26.8535 30.3303 26.5881 29.7508 26.4205 29.1436C26.2808 28.5364 26.0293 27.9845 25.6661 27.4877C25.6382 27.2669 25.5963 27.1289 25.5404 27.0737C25.4845 27.0185 25.4286 26.9082 25.3728 26.7426C25.261 26.5218 25.1632 26.2872 25.0794 26.0388C24.9956 25.7904 24.8838 25.5558 24.7441 25.3351C24.5206 24.8659 24.2971 24.4105 24.0736 23.969C23.8501 23.4998 23.6406 23.0168 23.445 22.5201C23.3612 22.2993 23.2913 22.0785 23.2355 21.8577C23.1796 21.6093 23.1097 21.3747 23.0259 21.1539C22.97 21.0436 22.9002 20.9332 22.8164 20.8228C22.7605 20.7124 22.7046 20.6158 22.6487 20.533C22.4811 20.2294 22.3135 19.9258 22.1459 19.6223C22.0062 19.3187 21.8385 19.0151 21.643 18.7115C21.5871 18.5735 21.5033 18.4493 21.3915 18.3389C21.3077 18.2009 21.2099 18.063 21.0982 17.925C21.0143 17.7318 20.9305 17.5386 20.8467 17.3454C20.7908 17.1522 20.721 16.959 20.6372 16.7658C20.5813 16.6003 20.4975 16.4347 20.3857 16.2691C20.274 16.0759 20.1902 15.8965 20.1343 15.7309C20.0784 15.5929 20.0365 15.4549 20.0086 15.3169C19.9806 15.179 19.8968 15.0548 19.7571 14.9444C19.5615 15.2756 19.4637 15.4963 19.4637 15.6067C19.4358 15.9379 19.4079 16.2139 19.3799 16.4347C19.3799 16.6279 19.3799 16.8072 19.3799 16.9728C19.3799 17.166 19.3939 17.3592 19.4218 17.5524C19.4777 17.718 19.5057 17.8836 19.5057 18.0492C19.5615 18.7115 19.6034 19.3877 19.6314 20.0776C19.6593 20.74 19.6733 21.4023 19.6733 22.0647C19.6453 22.589 19.6314 22.9892 19.6314 23.2652C19.6593 23.5412 19.6873 23.8172 19.7152 24.0931C19.7431 24.3691 19.7431 24.6589 19.7152 24.9625C19.7152 25.2385 19.7292 25.5144 19.7571 25.7904C19.7571 26.4252 19.7571 27.0461 19.7571 27.6533C19.785 28.2329 19.799 28.84 19.799 29.4748V30.4683C19.799 30.7719 19.7571 31.0479 19.6733 31.2962C19.2542 31.2962 18.9748 31.2824 18.8351 31.2549C18.7234 31.2273 18.5977 31.1859 18.458 31.1307C18.2903 31.1583 18.1506 31.2273 18.0389 31.3376C17.9551 31.4204 17.8433 31.5032 17.7036 31.586C17.3963 31.5584 17.2287 31.5584 17.2007 31.586C17.1728 31.6412 17.1169 31.6964 17.0331 31.7516C16.9493 31.7792 16.8655 31.7792 16.7816 31.7516C16.7258 31.724 16.6559 31.7102 16.5721 31.7102C16.3486 31.655 16.167 31.6274 16.0273 31.6274C15.8597 31.6826 15.692 31.7378 15.5244 31.793C15.3847 31.8482 15.2311 31.8896 15.0634 31.9172C14.8958 31.6136 14.798 31.2549 14.7701 30.8409C14.7421 30.4269 14.6304 30.0681 14.4348 29.7646C14.4907 29.6542 14.5186 29.5852 14.5186 29.5576C14.5466 29.53 14.5605 29.4472 14.5605 29.3092C14.5605 28.6744 14.5466 28.0397 14.5186 27.4049C14.4907 26.7702 14.4767 26.1354 14.4767 25.5006C14.4767 24.9763 14.4348 24.4657 14.351 23.969C14.2951 23.4722 14.2672 22.9616 14.2672 22.4373C14.2672 22.2717 14.2811 22.1061 14.3091 21.9405C14.337 21.7749 14.351 21.5955 14.351 21.4023C14.351 21.3195 14.337 21.2367 14.3091 21.1539C14.3091 21.0712 14.3091 21.0022 14.3091 20.947C14.2532 20.4502 14.2113 19.9396 14.1834 19.4153C14.1834 18.8909 14.1834 18.3665 14.1834 17.8422C14.1554 17.5386 14.1275 17.2212 14.0995 16.89C14.0995 16.5589 14.0995 16.2139 14.0995 15.8551C14.0995 15.7171 14.1135 15.5653 14.1414 15.3997C14.1694 15.2342 14.1834 15.0686 14.1834 14.903V13.1643C14.1275 12.8331 14.0995 12.6123 14.0995 12.5019C14.1275 12.3915 14.1414 12.2812 14.1414 12.1708C14.1414 11.9224 14.1135 11.6878 14.0576 11.467C14.0297 11.2186 14.0157 10.9564 14.0157 10.6805C14.0157 10.4873 14.0297 10.3079 14.0576 10.1423C14.1135 9.94912 14.1414 9.75593 14.1414 9.56274C14.1414 9.14877 14.1135 8.7486 14.0576 8.36222C14.0297 7.97585 14.0157 7.57568 14.0157 7.16171V3.64295C14.0157 3.44976 14.0018 3.25658 13.9738 3.06339C13.9459 2.8702 13.9319 2.66322 13.9319 2.44243C14.0995 2.05606 14.2532 1.86287 14.3929 1.86287C14.5326 1.83527 14.6583 1.78008 14.7701 1.69728C15.0774 1.75248 15.3428 1.72488 15.5663 1.61449C15.9295 1.64209 16.153 1.60069 16.2368 1.4903C16.2927 1.54549 16.3626 1.57309 16.4464 1.57309C16.5581 1.54549 16.6559 1.54549 16.7397 1.57309C16.8236 1.5179 16.8934 1.4627 16.9493 1.4075C17.0052 1.35231 17.089 1.29711 17.2007 1.24191C17.508 1.07633 17.6896 0.979733 17.7455 0.952135C17.8014 0.896938 17.8712 0.841742 17.9551 0.786546C18.0948 0.786546 18.1786 0.827943 18.2065 0.910737C18.2624 0.993532 18.3602 1.03493 18.4999 1.03493C18.5557 1.14532 18.6256 1.25571 18.7094 1.36611C18.7932 1.4765 18.891 1.55929 19.0028 1.61449C19.2263 2.08366 19.4917 2.48383 19.799 2.81501C20.0505 3.53256 20.3298 4.22251 20.6372 4.88486C20.9724 5.54722 21.3217 6.20957 21.6849 6.87193C21.6849 6.95472 21.6988 7.06511 21.7268 7.20311C21.7547 7.3135 21.7827 7.39629 21.8106 7.45149C21.9503 7.75507 22.1459 8.15524 22.3973 8.65201C22.6767 9.12117 22.9142 9.50755 23.1097 9.81113C23.1656 9.92152 23.2355 10.0181 23.3193 10.1009C23.4031 10.1837 23.4729 10.2803 23.5288 10.3907C23.6126 10.5287 23.6825 10.6805 23.7384 10.8461C23.7942 11.0116 23.8641 11.1634 23.9479 11.3014C24.0876 11.6326 24.2412 11.9638 24.4089 12.295C24.6045 12.5985 24.8 12.9159 24.9956 13.2471C25.0515 13.4127 25.1073 13.5783 25.1632 13.7439C25.247 13.9094 25.3309 14.075 25.4147 14.2406C25.6382 14.7374 25.8337 15.1238 26.0014 15.3997C26.197 15.6481 26.3366 15.9241 26.4205 16.2277C26.616 16.4485 26.7697 16.6969 26.8814 16.9728C26.9932 17.2212 27.1608 17.4282 27.3843 17.5938C27.4123 17.4558 27.4402 17.0556 27.4682 16.3933C27.4961 15.7033 27.5101 14.9582 27.5101 14.1578C27.5101 13.3575 27.5101 12.5985 27.5101 11.881C27.5101 11.1634 27.5101 10.6805 27.5101 10.4321C27.5101 9.68693 27.4961 8.95558 27.4682 8.23803C27.4402 7.49289 27.4262 6.76154 27.4262 6.04398C27.4262 5.46442 27.4262 4.88486 27.4262 4.3053C27.4542 3.69815 27.4821 3.10479 27.5101 2.52523C27.538 2.22165 27.538 1.94567 27.5101 1.69728C27.5101 1.4213 27.524 1.14532 27.552 0.86934C27.5799 0.73135 27.6358 0.593359 27.7196 0.455369C27.8034 0.317378 27.8733 0.179388 27.9291 0.0413972C28.2923 -0.013799 28.5717 0.0551962 28.7673 0.248383C28.9349 0.165589 29.1305 0.124191 29.354 0.124191C29.6055 0.124191 29.815 0.110392 29.9826 0.0827943C30.2061 0.0551962 30.3319 0.0413972 30.3598 0.0413972C30.3877 0.0137991 30.4296 0 30.4855 0C30.5973 0.0551962 30.6951 0.0965934 30.7789 0.124191C30.8906 0.15179 31.0164 0.193187 31.1561 0.248383C31.4075 0.165589 31.617 0.179388 31.7847 0.28978Z" fill="#4B522A"/>
</svg>
