<svg width="51" height="50" viewBox="0 0 51 50" fill="none" xmlns="http://www.w3.org/2000/svg">
<path d="M27.5906 0.452781C28.0656 0.452781 28.411 0.517464 28.6269 0.64683C28.8428 1.07805 28.9723 1.46615 29.0155 1.81113C29.1019 2.11298 29.145 2.47952 29.145 2.91074C29.1882 3.55757 29.1882 4.03191 29.145 4.33376C29.145 4.5925 29.1234 4.87279 29.0803 5.17464C29.0371 5.8646 29.0155 6.53299 29.0155 7.17982C29.0155 7.78353 29.0155 8.43036 29.0155 9.12031C29.0155 10.6296 29.0371 12.1604 29.0803 13.7128C29.1234 15.2652 29.145 16.796 29.145 18.3053C29.145 18.909 29.1234 19.5127 29.0803 20.1164C29.0803 20.677 29.0803 21.2592 29.0803 21.8629C29.0803 21.9922 29.0803 22.1432 29.0803 22.3157C29.1234 22.445 29.145 22.5744 29.145 22.7038C29.145 23.0918 29.1234 23.4799 29.0803 23.868C29.0803 24.213 29.0803 24.558 29.0803 24.903C29.0803 25.0755 29.0803 25.2264 29.0803 25.3558C29.0803 25.4851 29.1019 25.6576 29.145 25.8732C29.0587 26.2182 29.0155 26.4554 29.0155 26.5847C29.0155 27.2747 29.0371 27.9862 29.0803 28.7193C29.1234 29.4092 29.145 30.0992 29.145 30.7891C29.145 31.436 29.145 32.0612 29.145 32.6649C29.1882 33.2686 29.2098 33.8939 29.2098 34.5407C29.2098 34.8857 29.1882 35.2523 29.145 35.6404C29.145 36.0285 29.145 36.4166 29.145 36.8047C29.145 37.7102 29.1666 38.6373 29.2098 39.586C29.253 40.4916 29.2962 41.3972 29.3393 42.3027C29.3393 42.9064 29.3393 43.5101 29.3393 44.1138C29.3393 44.6744 29.3825 45.2566 29.4689 45.8603C29.4689 46.5502 29.4257 47.0677 29.3393 47.4127C29.2962 47.7145 29.2314 48.0164 29.145 48.3182C28.7996 48.4045 28.5621 48.4476 28.4326 48.4476C28.3462 48.4045 28.2383 48.3829 28.1088 48.3829C27.5043 48.5554 27.1157 48.7279 26.943 48.9004C26.7703 49.0298 26.576 49.1807 26.3601 49.3532C26.1874 49.3532 25.9715 49.3532 25.7124 49.3532C25.4965 49.3963 25.3238 49.4825 25.1943 49.6119C24.9784 49.5257 24.8057 49.5041 24.6761 49.5472C24.5466 49.5903 24.4171 49.6119 24.2875 49.6119C23.683 49.655 23.2729 49.7197 23.057 49.8059C22.8411 49.9353 22.5388 50 22.1502 50C21.8048 49.4394 21.5457 49.0082 21.373 48.7063C21.2003 48.3614 20.9197 48.2104 20.5311 48.2536C19.9697 47.3911 19.5596 46.4856 19.3005 45.5369C19.0846 44.5882 18.696 43.7257 18.1347 42.9495C18.0915 42.6046 18.0267 42.389 17.9404 42.3027C17.854 42.2165 17.7677 42.044 17.6813 41.7852C17.5086 41.4403 17.3575 41.0737 17.228 40.6856C17.0984 40.2975 16.9257 39.931 16.7098 39.586C16.3644 38.853 16.019 38.1414 15.6736 37.4515C15.3281 36.7184 15.0043 35.9638 14.7021 35.1876C14.5725 34.8426 14.4646 34.4976 14.3782 34.1526C14.2919 33.7646 14.1839 33.398 14.0544 33.053C13.968 32.8806 13.8601 32.7081 13.7306 32.5356C13.6442 32.3631 13.5578 32.2122 13.4715 32.0828C13.2124 31.6085 12.9534 31.1341 12.6943 30.6598C12.4784 30.1854 12.2193 29.7111 11.9171 29.2367C11.8307 29.0211 11.7012 28.8271 11.5285 28.6546C11.3989 28.439 11.2478 28.2234 11.0751 28.0078C10.9456 27.7059 10.816 27.4041 10.6865 27.1022C10.6002 26.8003 10.4922 26.4985 10.3627 26.1966C10.2763 25.9379 10.1468 25.6792 9.97408 25.4204C9.80137 25.1186 9.67183 24.8383 9.58548 24.5796C9.49912 24.3639 9.43436 24.1483 9.39118 23.9327C9.348 23.7171 9.21847 23.5231 9.00258 23.3506C8.70033 23.868 8.54921 24.213 8.54921 24.3855C8.50603 24.903 8.46286 25.3342 8.41968 25.6792C8.41968 25.981 8.41968 26.2613 8.41968 26.52C8.41968 26.8219 8.44127 27.1238 8.48444 27.4256C8.5708 27.6843 8.61398 27.9431 8.61398 28.2018C8.70033 29.2367 8.7651 30.2932 8.80828 31.3713C8.85146 32.4062 8.87304 33.4411 8.87304 34.4761C8.82987 35.2954 8.80828 35.9207 8.80828 36.3519C8.85146 36.7831 8.89463 37.2143 8.93781 37.6455C8.98099 38.0768 8.98099 38.5295 8.93781 39.0039C8.93781 39.4351 8.9594 39.8663 9.00258 40.2975C9.00258 41.2893 9.00258 42.2596 9.00258 43.2083C9.04576 44.1138 9.06734 45.0625 9.06734 46.0543V47.6067C9.06734 48.0811 9.00258 48.5123 8.87304 48.9004C8.22538 48.9004 7.7936 48.8788 7.57771 48.8357C7.405 48.7926 7.2107 48.7279 6.99481 48.6417C6.73574 48.6848 6.51985 48.7926 6.34714 48.9651C6.21761 49.0944 6.0449 49.2238 5.82901 49.3532C5.35405 49.31 5.09498 49.31 5.05181 49.3532C5.00863 49.4394 4.92227 49.5257 4.79274 49.6119C4.66321 49.655 4.53367 49.655 4.40414 49.6119C4.31778 49.5688 4.20984 49.5472 4.08031 49.5472C3.73488 49.461 3.45423 49.4179 3.23834 49.4179C2.97927 49.5041 2.7202 49.5903 2.46114 49.6766C2.24525 49.7628 2.00777 49.8275 1.7487 49.8706C1.48964 49.3963 1.33851 48.8357 1.29533 48.1889C1.25216 47.542 1.07945 46.9815 0.777201 46.5071C0.863557 46.3346 0.906735 46.2268 0.906735 46.1837C0.949912 46.1406 0.971501 46.0112 0.971501 45.7956C0.971501 44.8038 0.949912 43.812 0.906735 42.8202C0.863557 41.8284 0.841968 40.8366 0.841968 39.8448C0.841968 39.0254 0.777201 38.2277 0.647667 37.4515C0.561312 36.6753 0.518134 35.8775 0.518134 35.0582C0.518134 34.7995 0.539723 34.5407 0.582901 34.282C0.626079 34.0233 0.647667 33.743 0.647667 33.4411C0.647667 33.3118 0.626079 33.1824 0.582901 33.053C0.582901 32.9237 0.582901 32.8159 0.582901 32.7296C0.496545 31.9534 0.431778 31.1557 0.388601 30.3364C0.388601 29.517 0.388601 28.6977 0.388601 27.8784C0.345423 27.4041 0.302245 26.9082 0.259067 26.3907C0.259067 25.8732 0.259067 25.3342 0.259067 24.7736C0.259067 24.558 0.280656 24.3208 0.323834 24.0621C0.367012 23.8034 0.388601 23.5446 0.388601 23.2859V20.5692C0.302245 20.0517 0.259067 19.7068 0.259067 19.5343C0.302245 19.3618 0.323834 19.1893 0.323834 19.0168C0.323834 18.6287 0.280656 18.2622 0.1943 17.9172C0.151122 17.5291 0.129534 17.1194 0.129534 16.6882C0.129534 16.3864 0.151122 16.1061 0.1943 15.8473C0.280656 15.5455 0.323834 15.2436 0.323834 14.9418C0.323834 14.295 0.280656 13.6697 0.1943 13.066C0.151122 12.4623 0.129534 11.837 0.129534 11.1902V5.69211C0.129534 5.39025 0.107945 5.0884 0.0647668 4.78655C0.0215889 4.48469 0 4.16128 0 3.8163C0.259067 3.21259 0.496545 2.91074 0.712434 2.91074C0.928323 2.86762 1.12262 2.78137 1.29533 2.652C1.77029 2.73825 2.18048 2.69513 2.5259 2.52264C3.08722 2.56576 3.43264 2.50108 3.56217 2.32859C3.64853 2.41483 3.75647 2.45796 3.88601 2.45796C4.05872 2.41483 4.20984 2.41483 4.33937 2.45796C4.46891 2.37171 4.57685 2.28547 4.66321 2.19922C4.74956 2.11298 4.8791 2.02674 5.05181 1.94049C5.52676 1.68176 5.80742 1.53083 5.89377 1.48771C5.98013 1.40147 6.08807 1.31522 6.21761 1.22898C6.4335 1.22898 6.56303 1.29366 6.60621 1.42303C6.69256 1.55239 6.84369 1.61708 7.05958 1.61708C7.14593 1.78956 7.25388 1.96205 7.38341 2.13454C7.51294 2.30703 7.66407 2.43639 7.83678 2.52264C8.1822 3.25571 8.59239 3.88098 9.06734 4.39845C9.45595 5.51962 9.88772 6.59767 10.3627 7.6326C10.8808 8.66753 11.4205 9.70246 11.9818 10.7374C11.9818 10.8668 12.0034 11.0392 12.0466 11.2549C12.0898 11.4273 12.133 11.5567 12.1761 11.6429C12.392 12.1173 12.6943 12.7426 13.0829 13.5188C13.5147 14.2518 13.8817 14.8555 14.1839 15.3299C14.2703 15.5024 14.3782 15.6533 14.5078 15.7827C14.6373 15.912 14.7452 16.063 14.8316 16.2354C14.9611 16.4511 15.0691 16.6882 15.1554 16.947C15.2418 17.2057 15.3497 17.4429 15.4793 17.6585C15.6951 18.1759 15.9326 18.6934 16.1917 19.2109C16.4939 19.6852 16.7962 20.1811 17.0984 20.6986C17.1848 20.9573 17.2711 21.216 17.3575 21.4748C17.487 21.7335 17.6166 21.9922 17.7461 22.251C18.0915 23.0272 18.3938 23.6309 18.6528 24.0621C18.9551 24.4502 19.171 24.8814 19.3005 25.3558C19.6027 25.7007 19.8402 26.0888 20.0129 26.52C20.1856 26.9082 20.4447 27.2316 20.7901 27.4903C20.8333 27.2747 20.8765 26.6494 20.9197 25.6145C20.9628 24.5364 20.9844 23.3721 20.9844 22.1216C20.9844 20.8711 20.9844 19.6852 20.9844 18.564C20.9844 17.4429 20.9844 16.6882 20.9844 16.3001C20.9844 15.1358 20.9628 13.9931 20.9197 12.8719C20.8765 11.7076 20.8549 10.5649 20.8549 9.44373C20.8549 8.53816 20.8549 7.6326 20.8549 6.72704C20.8981 5.77835 20.9412 4.85123 20.9844 3.94567C21.0276 3.47132 21.0276 3.0401 20.9844 2.652C20.9844 2.22078 21.006 1.78956 21.0492 1.35834C21.0924 1.14273 21.1787 0.927124 21.3083 0.711514C21.4378 0.495903 21.5457 0.280293 21.6321 0.0646831C22.1934 -0.021561 22.6252 0.0862441 22.9274 0.388098C23.1865 0.258732 23.4887 0.194049 23.8342 0.194049C24.2228 0.194049 24.5466 0.172488 24.8057 0.129366C25.1511 0.0862441 25.3454 0.0646831 25.3886 0.0646831C25.4317 0.021561 25.4965 0 25.5829 0C25.7556 0.0862441 25.9067 0.150927 26.0362 0.194049C26.2089 0.237171 26.4032 0.301854 26.6191 0.388098C27.0077 0.258732 27.3316 0.280293 27.5906 0.452781Z" fill="#F8E7D1"/>
<path d="M49.1218 0.452781C49.5967 0.452781 49.9421 0.517464 50.158 0.64683C50.3739 1.07805 50.5035 1.46615 50.5466 1.81113C50.633 2.11298 50.6762 2.47952 50.6762 2.91074C50.7193 3.55757 50.7193 4.03191 50.6762 4.33376C50.6762 4.5925 50.6546 4.87279 50.6114 5.17464C50.5682 5.8646 50.5466 6.53299 50.5466 7.17982C50.5466 7.78353 50.5466 8.43036 50.5466 9.12031C50.5466 10.6296 50.5682 12.1604 50.6114 13.7128C50.6546 15.2652 50.6762 16.796 50.6762 18.3053C50.6762 18.909 50.6546 19.5127 50.6114 20.1164C50.6114 20.677 50.6114 21.2592 50.6114 21.8629C50.6114 21.9922 50.6114 22.1432 50.6114 22.3157C50.6546 22.445 50.6762 22.5744 50.6762 22.7038C50.6762 23.0918 50.6546 23.4799 50.6114 23.868C50.6114 24.213 50.6114 24.558 50.6114 24.903C50.6114 25.0755 50.6114 25.2264 50.6114 25.3558C50.6114 25.4851 50.633 25.6576 50.6762 25.8732C50.5898 26.2182 50.5466 26.4554 50.5466 26.5847C50.5466 27.2747 50.5682 27.9862 50.6114 28.7193C50.6546 29.4092 50.6762 30.0992 50.6762 30.7891C50.6762 31.436 50.6762 32.0612 50.6762 32.6649C50.7193 33.2686 50.7409 33.8939 50.7409 34.5407C50.7409 34.8857 50.7193 35.2523 50.6762 35.6404C50.6762 36.0285 50.6762 36.4166 50.6762 36.8047C50.6762 37.7102 50.6978 38.6373 50.7409 39.586C50.7841 40.4916 50.8273 41.3972 50.8705 42.3027C50.8705 42.9064 50.8705 43.5101 50.8705 44.1138C50.8705 44.6744 50.9136 45.2566 51 45.8603C51 46.5502 50.9568 47.0677 50.8705 47.4127C50.8273 47.7145 50.7625 48.0164 50.6762 48.3182C50.3307 48.4045 50.0933 48.4476 49.9637 48.4476C49.8774 48.4045 49.7694 48.3829 49.6399 48.3829C49.0354 48.5554 48.6468 48.7279 48.4741 48.9004C48.3014 49.0298 48.1071 49.1807 47.8912 49.3532C47.7185 49.3532 47.5026 49.3532 47.2435 49.3532C47.0276 49.3963 46.8549 49.4825 46.7254 49.6119C46.5095 49.5257 46.3368 49.5041 46.2073 49.5472C46.0777 49.5903 45.9482 49.6119 45.8187 49.6119C45.2142 49.655 44.804 49.7197 44.5881 49.8059C44.3722 49.9353 44.07 50 43.6814 50C43.3359 49.4394 43.0769 49.0082 42.9042 48.7063C42.7314 48.3614 42.4508 48.2104 42.0622 48.2536C41.5009 47.3911 41.0907 46.4855 40.8316 45.5369C40.6157 44.5882 40.2271 43.7257 39.6658 42.9495C39.6226 42.6046 39.5579 42.389 39.4715 42.3027C39.3852 42.2165 39.2988 42.044 39.2125 41.7852C39.0397 41.4403 38.8886 41.0737 38.7591 40.6856C38.6295 40.2975 38.4568 39.931 38.241 39.586C37.8955 38.853 37.5501 38.1414 37.2047 37.4515C36.8593 36.7184 36.5354 35.9638 36.2332 35.1876C36.1036 34.8426 35.9957 34.4976 35.9093 34.1526C35.823 33.7646 35.715 33.398 35.5855 33.053C35.4992 32.8806 35.3912 32.7081 35.2617 32.5356C35.1753 32.3631 35.089 32.2122 35.0026 32.0828C34.7435 31.6085 34.4845 31.1341 34.2254 30.6598C34.0095 30.1854 33.7505 29.7111 33.4482 29.2367C33.3619 29.0211 33.2323 28.8271 33.0596 28.6546C32.9301 28.439 32.779 28.2234 32.6062 28.0078C32.4767 27.7059 32.3472 27.4041 32.2176 27.1022C32.1313 26.8003 32.0233 26.4985 31.8938 26.1966C31.8075 25.9379 31.6779 25.6792 31.5052 25.4204C31.3325 25.1186 31.203 24.8383 31.1166 24.5796C31.0303 24.3639 30.9655 24.1483 30.9223 23.9327C30.8791 23.7171 30.7496 23.5231 30.5337 23.3506C30.2315 23.868 30.0803 24.213 30.0803 24.3855C30.0372 24.903 29.994 25.3342 29.9508 25.6792C29.9508 25.981 29.9508 26.2613 29.9508 26.52C29.9508 26.8219 29.9724 27.1238 30.0156 27.4256C30.1019 27.6843 30.1451 27.9431 30.1451 28.2018C30.2315 29.2367 30.2962 30.2932 30.3394 31.3713C30.3826 32.4062 30.4042 33.4411 30.4042 34.4761C30.361 35.2954 30.3394 35.9207 30.3394 36.3519C30.3826 36.7831 30.4258 37.2143 30.4689 37.6455C30.5121 38.0768 30.5121 38.5295 30.4689 39.0039C30.4689 39.4351 30.4905 39.8663 30.5337 40.2975C30.5337 41.2893 30.5337 42.2596 30.5337 43.2083C30.5769 44.1138 30.5985 45.0625 30.5985 46.0543V47.6067C30.5985 48.0811 30.5337 48.5123 30.4042 48.9004C29.7565 48.9004 29.3247 48.8788 29.1088 48.8357C28.9361 48.7926 28.7418 48.7279 28.5259 48.6417C28.2669 48.6848 28.051 48.7926 27.8783 48.9651C27.7487 49.0944 27.576 49.2238 27.3601 49.3532C26.8852 49.31 26.6261 49.31 26.5829 49.3532C26.5398 49.4394 26.4534 49.5257 26.3239 49.6119C26.1943 49.655 26.0648 49.655 25.9353 49.6119C25.8489 49.5688 25.741 49.5472 25.6114 49.5472C25.266 49.461 24.9854 49.4179 24.7695 49.4179C24.5104 49.5041 24.2513 49.5903 23.9923 49.6766C23.7764 49.7628 23.5389 49.8275 23.2798 49.8706C23.0208 49.3963 22.8696 48.8357 22.8265 48.1889C22.7833 47.542 22.6106 46.9815 22.3083 46.5071C22.3947 46.3346 22.4379 46.2268 22.4379 46.1837C22.481 46.1406 22.5026 46.0112 22.5026 45.7956C22.5026 44.8038 22.481 43.812 22.4379 42.8202C22.3947 41.8284 22.3731 40.8366 22.3731 39.8448C22.3731 39.0254 22.3083 38.2277 22.1788 37.4515C22.0924 36.6753 22.0493 35.8775 22.0493 35.0582C22.0493 34.7995 22.0709 34.5407 22.114 34.282C22.1572 34.0233 22.1788 33.743 22.1788 33.4411C22.1788 33.3118 22.1572 33.1824 22.114 33.053C22.114 32.9237 22.114 32.8159 22.114 32.7296C22.0277 31.9534 21.9629 31.1557 21.9197 30.3364C21.9197 29.517 21.9197 28.6977 21.9197 27.8784C21.8766 27.4041 21.8334 26.9082 21.7902 26.3907C21.7902 25.8732 21.7902 25.3342 21.7902 24.7736C21.7902 24.558 21.8118 24.3208 21.855 24.0621C21.8981 23.8034 21.9197 23.5446 21.9197 23.2859V20.5692C21.8334 20.0517 21.7902 19.7068 21.7902 19.5343C21.8334 19.3618 21.855 19.1893 21.855 19.0168C21.855 18.6287 21.8118 18.2622 21.7254 17.9172C21.6822 17.5291 21.6607 17.1194 21.6607 16.6882C21.6607 16.3864 21.6822 16.1061 21.7254 15.8473C21.8118 15.5455 21.855 15.2436 21.855 14.9418C21.855 14.295 21.8118 13.6697 21.7254 13.066C21.6822 12.4623 21.6607 11.837 21.6607 11.1902V5.69211C21.6607 5.39025 21.6391 5.0884 21.5959 4.78655C21.5527 4.48469 21.5311 4.16128 21.5311 3.8163C21.7902 3.21259 22.0277 2.91074 22.2436 2.91074C22.4595 2.86762 22.6538 2.78137 22.8265 2.652C23.3014 2.73825 23.7116 2.69513 24.057 2.52264C24.6183 2.56576 24.9638 2.50108 25.0933 2.32859C25.1797 2.41483 25.2876 2.45796 25.4171 2.45796C25.5898 2.41483 25.741 2.41483 25.8705 2.45796C26 2.37171 26.108 2.28547 26.1943 2.19922C26.2807 2.11298 26.4102 2.02674 26.5829 1.94049C27.0579 1.68176 27.3385 1.53083 27.4249 1.48771C27.5113 1.40147 27.6192 1.31522 27.7487 1.22898C27.9646 1.22898 28.0942 1.29366 28.1373 1.42303C28.2237 1.55239 28.3748 1.61708 28.5907 1.61708C28.6771 1.78956 28.785 1.96205 28.9145 2.13454C29.0441 2.30703 29.1952 2.43639 29.3679 2.52264C29.7133 3.25571 30.1235 3.88098 30.5985 4.39845C30.9871 5.51962 31.4189 6.59767 31.8938 7.6326C32.4119 8.66753 32.9517 9.70246 33.513 10.7374C33.513 10.8668 33.5346 11.0392 33.5777 11.2549C33.6209 11.4273 33.6641 11.5567 33.7073 11.6429C33.9232 12.1173 34.2254 12.7426 34.614 13.5188C35.0458 14.2518 35.4128 14.8555 35.715 15.3299C35.8014 15.5024 35.9093 15.6533 36.0389 15.7827C36.1684 15.912 36.2764 16.063 36.3627 16.2354C36.4922 16.4511 36.6002 16.6882 36.6865 16.947C36.7729 17.2057 36.8808 17.4429 37.0104 17.6585C37.2263 18.1759 37.4637 18.6934 37.7228 19.2109C38.0251 19.6852 38.3273 20.1811 38.6295 20.6986C38.7159 20.9573 38.8023 21.216 38.8886 21.4748C39.0182 21.7335 39.1477 21.9922 39.2772 22.251C39.6226 23.0272 39.9249 23.6309 40.184 24.0621C40.4862 24.4502 40.7021 24.8814 40.8316 25.3558C41.1339 25.7007 41.3713 26.0888 41.5441 26.52C41.7168 26.9081 41.9758 27.2316 42.3213 27.4903C42.3644 27.2747 42.4076 26.6494 42.4508 25.6145C42.494 24.5364 42.5156 23.3721 42.5156 22.1216C42.5156 20.8711 42.5156 19.6852 42.5156 18.564C42.5156 17.4429 42.5156 16.6882 42.5156 16.3001C42.5156 15.1358 42.494 13.9931 42.4508 12.8719C42.4076 11.7076 42.386 10.5649 42.386 9.44373C42.386 8.53816 42.386 7.6326 42.386 6.72704C42.4292 5.77835 42.4724 4.85123 42.5156 3.94567C42.5587 3.47132 42.5587 3.0401 42.5156 2.652C42.5156 2.22078 42.5371 1.78956 42.5803 1.35834C42.6235 1.14273 42.7099 0.927124 42.8394 0.711514C42.9689 0.495903 43.0769 0.280293 43.1632 0.0646831C43.7245 -0.021561 44.1563 0.0862441 44.4586 0.388098C44.7176 0.258732 45.0199 0.194049 45.3653 0.194049C45.7539 0.194049 46.0777 0.172488 46.3368 0.129366C46.6822 0.0862441 46.8765 0.0646831 46.9197 0.0646831C46.9629 0.021561 47.0276 0 47.114 0C47.2867 0.0862441 47.4378 0.150927 47.5674 0.194049C47.7401 0.237171 47.9344 0.301854 48.1503 0.388098C48.5389 0.258732 48.8627 0.280293 49.1218 0.452781Z" fill="#F8E7D1"/>
</svg>
